<svg xmlns="http://www.w3.org/2000/svg" viewBox="0 0 800 600"><defs><linearGradient id="g" x1="0" y1="0" x2="0" y2="1"><stop stop-color="#edf4ef"/><stop offset="1" stop-color="#cddfdc"/></linearGradient></defs><rect width="800" height="600" fill="url(#g)"/><ellipse cx="400" cy="390" rx="318" ry="125" fill="#8fb8b4" opacity=".62"/><ellipse cx="290" cy="366" rx="95" ry="32" fill="#738f6e" opacity=".7"/><ellipse cx="514" cy="430" rx="106" ry="38" fill="#779675" opacity=".72"/><g fill="#d1dba7"><circle cx="260" cy="340" r="18"/><circle cx="299" cy="351" r="14"/><circle cx="520" cy="409" r="17"/></g><g fill="none" stroke="#466a55" stroke-width="9" stroke-linecap="round"><path d="M126 413q28-84 9-168M170 430q16-97-5-197M652 430q-8-107 24-188M700 415q-20-94 0-169"/></g><g fill="#d96b43"><ellipse cx="392" cy="393" rx="42" ry="20"/><path d="M351 392l-29-23v46z"/></g><circle cx="405" cy="388" r="3" fill="#2b2b2b"/><text x="400" y="85" text-anchor="middle" fill="#2D4A3E" font-family="Georgia,serif" font-size="34">pond life at the waterline</text></svg>
