<svg xmlns="http://www.w3.org/2000/svg" viewBox="0 0 800 600"><rect width="800" height="600" fill="#f7f0e5"/><rect x="128" y="72" width="544" height="460" rx="18" fill="#fffdf8" stroke="#dfd4c5" stroke-width="4"/><path d="M395 456c15-120 14-226 5-302" stroke="#4c6a59" stroke-width="7" fill="none"/><g fill="#d9a66a" opacity=".75"><ellipse cx="388" cy="170" rx="30" ry="62" transform="rotate(-20 388 170)"/><ellipse cx="418" cy="220" rx="30" ry="62" transform="rotate(25 418 220)"/><ellipse cx="375" cy="285" rx="29" ry="59" transform="rotate(-28 375 285)"/></g><g fill="#718c72" opacity=".82"><ellipse cx="352" cy="338" rx="24" ry="70" transform="rotate(-43 352 338)"/><ellipse cx="447" cy="370" rx="24" ry="70" transform="rotate(43 447 370)"/></g><g fill="#b96d5a"><circle cx="402" cy="135" r="25"/><circle cx="371" cy="149" r="24"/><circle cx="431" cy="150" r="24"/><circle cx="383" cy="118" r="24"/><circle cx="421" cy="118" r="24"/></g><circle cx="402" cy="136" r="17" fill="#e9b872"/><text x="184" y="112" fill="#2D4A3E" font-family="Georgia,serif" font-size="24">field specimen no. 07</text><text x="400" y="575" text-anchor="middle" fill="#2D4A3E" font-family="Georgia,serif" font-size="31">a small herbarium to keep</text></svg>
